<?xml version="1.0" encoding="UTF-8"?>
<svg version="1.1" xmlns="http://www.w3.org/2000/svg" width="100" height="100">
<path d="M0 0 C1.21879852 0.00607269 1.21879852 0.00607269 2.46221924 0.01226807 C3.31761292 0.00876343 4.17300659 0.00525879 5.05432129 0.00164795 C7.89088988 -0.00717764 10.72721047 -0.00131732 13.56378174 0.00543213 C15.52911426 0.00408572 17.49444646 0.00214538 19.45977783 -0.00036621 C23.58236863 -0.0033186 27.70487286 0.00098385 31.82745361 0.01031494 C37.12064503 0.02170953 42.41363365 0.01515067 47.70681763 0.00317001 C51.76618995 -0.0040455 55.82551394 -0.00176208 59.8848877 0.0034256 C61.83699568 0.00476295 63.78910802 0.0031114 65.74121094 -0.00153351 C68.46604089 -0.00659367 71.1905391 0.00110425 73.91534424 0.01226807 C74.72787659 0.0082196 75.54040894 0.00417114 76.37756348 0 C81.96025361 0.042529 81.96025361 0.042529 84.18878174 2.27105713 C84.38693358 4.69935774 84.46161441 7.01359732 84.4475708 9.44293213 C84.45107544 10.18128296 84.45458008 10.91963379 84.45819092 11.68035889 C84.46701223 14.12735321 84.46115778 16.57405973 84.45440674 19.02105713 C84.45575328 20.71734676 84.45769371 22.41363601 84.46020508 24.10992432 C84.46315688 27.66757883 84.45885693 31.22513301 84.44952393 34.78277588 C84.43812933 39.34956853 84.4446885 43.91612613 84.45666885 48.48291016 C84.46388596 51.98640727 84.46160022 55.48984839 84.45641327 58.99334717 C84.45507636 60.67751086 84.45672594 62.36167959 84.46137238 64.0458374 C84.46643521 66.39708987 84.45873106 68.74795836 84.4475708 71.09918213 C84.45161926 71.79950562 84.45566772 72.4998291 84.45983887 73.22137451 C84.41731089 78.04252797 84.41731089 78.04252797 82.18878174 80.27105713 C79.39827082 80.46969056 76.70699126 80.54375564 73.91534424 80.52984619 C73.05995056 80.53335083 72.20455688 80.53685547 71.32324219 80.54046631 C68.48667359 80.54929189 65.65035301 80.54343158 62.81378174 80.53668213 C60.84844922 80.53802854 58.88311702 80.53996887 56.91778564 80.54248047 C52.79519485 80.54543285 48.67269061 80.54113041 44.55010986 80.53179932 C39.25691844 80.52040473 33.96392982 80.52696359 28.67074585 80.53894424 C24.61137352 80.54615976 20.55204954 80.54387634 16.49267578 80.53868866 C14.54056779 80.53735131 12.58845546 80.53900286 10.63635254 80.54364777 C7.91152259 80.54870793 5.18702438 80.54101001 2.46221924 80.52984619 C1.64968689 80.53389465 0.83715454 80.53794312 0 80.54211426 C-5.58269013 80.49958526 -5.58269013 80.49958526 -7.81121826 78.27105713 C-8.00937011 75.84275652 -8.08405093 73.52851694 -8.07000732 71.09918213 C-8.07351196 70.3608313 -8.0770166 69.62248047 -8.08062744 68.86175537 C-8.08944876 66.41476105 -8.0835943 63.96805452 -8.07684326 61.52105713 C-8.0781898 59.8247675 -8.08013024 58.12847825 -8.0826416 56.43218994 C-8.0855934 52.87453543 -8.08129345 49.31698124 -8.07196045 45.75933838 C-8.06056585 41.19254572 -8.06712503 36.62598813 -8.07910538 32.0592041 C-8.08632249 28.55570699 -8.08403674 25.05226586 -8.07884979 21.54876709 C-8.07751288 19.8646034 -8.07916246 18.18043467 -8.0838089 16.49627686 C-8.08887173 14.14502439 -8.08116759 11.7941559 -8.07000732 9.44293213 C-8.07405579 8.74260864 -8.07810425 8.04228516 -8.08227539 7.32073975 C-8.02493124 0.81996153 -6.32866428 0.04821184 0 0 Z M-1.81121826 4.27105713 C-4.60744408 7.06728295 -4.06480317 8.79187031 -4.07000732 12.70855713 C-4.07351196 13.36887939 -4.0770166 14.02920166 -4.08062744 14.70953369 C-4.08944508 16.89681445 -4.08359569 19.08377296 -4.07684326 21.27105713 C-4.07818991 22.78798485 -4.08013044 24.30491214 -4.0826416 25.82183838 C-4.0855929 29.00286971 -4.0812951 32.18378882 -4.07196045 35.36480713 C-4.06056583 39.44733615 -4.06712528 43.52960222 -4.07910538 47.61212158 C-4.08632387 50.74503571 -4.08403612 53.87788724 -4.07884979 57.01080322 C-4.07751326 58.51633739 -4.07916114 60.0218772 -4.0838089 61.52740479 C-4.08887405 63.62960925 -4.08116454 65.73138471 -4.07000732 67.83355713 C-4.06841614 69.03109619 -4.06682495 70.22863525 -4.06518555 71.46246338 C-4.10111111 74.4081997 -4.10111111 74.4081997 -1.81121826 76.27105713 C7.42878174 76.27105713 16.66878174 76.27105713 26.18878174 76.27105713 C26.18878174 52.51105713 26.18878174 28.75105713 26.18878174 4.27105713 C16.94878174 4.27105713 7.70878174 4.27105713 -1.81121826 4.27105713 Z M30.18878174 4.27105713 C30.18878174 28.03105713 30.18878174 51.79105713 30.18878174 76.27105713 C38.06753174 76.31230713 45.94628174 76.35355713 54.06378174 76.39605713 C57.79537598 76.42336914 57.79537598 76.42336914 61.60235596 76.45123291 C63.56605818 76.4570721 65.52976282 76.46216901 67.49346924 76.46636963 C68.51964355 76.47660156 69.54581787 76.4868335 70.60308838 76.49737549 C72.06452271 76.49773804 72.06452271 76.49773804 73.55548096 76.49810791 C74.40375458 76.50254913 75.2520282 76.50699036 76.12600708 76.51156616 C78.41226719 76.46121073 78.41226719 76.46121073 80.18878174 74.27105713 C80.49659302 71.33011118 80.49659302 71.33011118 80.4475708 67.83355713 C80.45107544 67.17323486 80.45458008 66.5129126 80.45819092 65.83258057 C80.46700855 63.6452998 80.46115917 61.4583413 80.45440674 59.27105713 C80.45575338 57.75412941 80.45769391 56.23720212 80.46020508 54.72027588 C80.46315638 51.53924454 80.45885858 48.35832543 80.44952393 45.17730713 C80.43812931 41.09477811 80.44468876 37.01251204 80.45666885 32.92999268 C80.46388734 29.79707855 80.46159959 26.66422702 80.45641327 23.53131104 C80.45507674 22.02577687 80.45672462 20.52023706 80.46137238 19.01470947 C80.46643752 16.91250501 80.45872801 14.81072955 80.4475708 12.70855713 C80.44597961 11.51101807 80.44438843 10.313479 80.44274902 9.07965088 C80.47867458 6.13391455 80.47867458 6.13391455 78.18878174 4.27105713 C76.04658292 3.97911967 76.04658292 3.97911967 73.55548096 4.04400635 C72.58119141 4.04424805 71.60690186 4.04448975 70.60308838 4.04473877 C69.57691406 4.0549707 68.55073975 4.06520264 67.49346924 4.07574463 C66.55188965 4.07775879 65.61031006 4.07977295 64.64019775 4.08184814 C61.11467637 4.09233149 57.58922428 4.12025397 54.06378174 4.14605713 C46.18503174 4.18730713 38.30628174 4.22855713 30.18878174 4.27105713 Z " fill="#FFFFFF" transform="translate(11.81121826171875,9.72894287109375)"/>
<path d="M0 0 C4.54359502 0.48508132 6.65945738 2.06608567 9.875 5.25 C10.67679688 6.01828125 11.47859375 6.7865625 12.3046875 7.578125 C14 10 14 10 14.02734375 12.49609375 C12.74290531 15.6266072 11.09283057 17.43866312 8.6875 19.8125 C7.51767578 20.99779297 7.51767578 20.99779297 6.32421875 22.20703125 C4 24 4 24 0 24 C0.31767632 18.59950264 3.19996327 16.47662935 7 13 C5.63629701 10.00779732 4.05091917 7.70973471 1.875 5.25 C1.33617187 4.63640625 0.79734375 4.0228125 0.2421875 3.390625 C-0.16773438 2.93171875 -0.57765625 2.4728125 -1 2 C-0.67 1.34 -0.34 0.68 0 0 Z " fill="#FFFFFF" transform="translate(48,24)"/>
<path d="M0 0 C4.62 0 9.24 0 14 0 C14 1.32 14 2.64 14 4 C9.38 4 4.76 4 0 4 C0 2.68 0 1.36 0 0 Z " fill="#FFFFFF" transform="translate(20,46)"/>
<path d="M0 0 C4.62 0 9.24 0 14 0 C14 1.32 14 2.64 14 4 C9.38 4 4.76 4 0 4 C0 2.68 0 1.36 0 0 Z " fill="#FFFFFF" transform="translate(20,38)"/>
<path d="M0 0 C4.62 0 9.24 0 14 0 C14 1.32 14 2.64 14 4 C9.38 4 4.76 4 0 4 C0 2.68 0 1.36 0 0 Z " fill="#FFFFFF" transform="translate(20,30)"/>
<path d="M0 0 C4.62 0 9.24 0 14 0 C14 1.32 14 2.64 14 4 C9.38 4 4.76 4 0 4 C0 2.68 0 1.36 0 0 Z " fill="#FFFFFF" transform="translate(20,22)"/>
<path d="M0 0 C1.32 0 2.64 0 4 0 C4 1.32 4 2.64 4 4 C2.68 4 1.36 4 0 4 C0 2.68 0 1.36 0 0 Z " fill="#FFFFFF" transform="translate(12,46)"/>
<path d="M0 0 C1.32 0 2.64 0 4 0 C4 1.32 4 2.64 4 4 C2.68 4 1.36 4 0 4 C0 2.68 0 1.36 0 0 Z " fill="#FFFFFF" transform="translate(12,38)"/>
<path d="M0 0 C1.32 0 2.64 0 4 0 C4 1.32 4 2.64 4 4 C2.68 4 1.36 4 0 4 C0 2.68 0 1.36 0 0 Z " fill="#FFFFFF" transform="translate(12,30)"/>
<path d="M0 0 C1.32 0 2.64 0 4 0 C4 1.32 4 2.64 4 4 C2.68 4 1.36 4 0 4 C0 2.68 0 1.36 0 0 Z " fill="#FFFFFF" transform="translate(12,22)"/>
</svg>
